<svg width="234" height="47" viewBox="0 0 234 47" fill="none" xmlns="http://www.w3.org/2000/svg">
<path d="M42.3539 0C43.7996 0.356891 45.1188 1.10592 46.1661 2.16456C47.2821 3.33202 47.9146 4.87876 47.9365 6.49368C47.9365 17.8355 47.9365 29.1709 47.9365 40.4999C47.8939 42.2001 47.1995 43.819 45.9969 45.0216C44.7942 46.2243 43.1754 46.9187 41.4751 46.9612C29.8447 46.9957 18.2013 46.9957 6.54497 46.9612C4.7792 46.9273 3.09888 46.1948 1.87206 44.9244C0.645231 43.654 -0.0280813 41.9491 -0.000399725 40.1833C-0.000399725 29.9312 -0.000399725 19.6792 -0.000399725 9.42714V6.79736C-0.0115053 5.25085 0.508623 3.7474 1.47302 2.53837C2.43742 1.32934 3.78764 0.488022 5.29792 0.155073C5.44094 0.111962 5.5812 0.0601748 5.71791 0L42.3539 0ZM23.9454 45.0551H40.8678C43.9951 45.0551 46.0369 43.0069 46.0369 39.886V7.1915C46.0369 3.96082 44.0274 1.93195 40.7902 1.93195H7.25572C3.87642 1.93841 1.93801 3.87682 1.93801 7.26904V39.718C1.93801 43.0844 3.90873 45.0551 7.26218 45.0551H23.9454Z" fill="white"/>
<path d="M233.087 12.8258C232.306 14.6414 231.511 16.4442 230.755 18.2598C228.17 24.48 225.599 30.7044 223.04 36.9332C222.995 37.1434 222.87 37.3281 222.692 37.4485C222.514 37.5689 222.296 37.6158 222.084 37.5793C221.289 37.5211 220.307 37.8248 219.745 37.4501C219.183 37.0753 219.028 36.0867 218.724 35.3566L209.562 13.1941C209.484 13.0067 209.413 12.8193 209.297 12.548C210.337 12.548 211.3 12.5157 212.256 12.5803C212.45 12.5803 212.689 12.955 212.792 13.2264C214.726 18.0207 216.65 22.8172 218.562 27.6159C219.402 29.7158 220.249 31.8093 221.179 34.116C221.379 33.6443 221.515 33.3406 221.638 33.0305C224.287 26.4485 226.93 19.8644 229.566 13.2781C229.773 12.7418 230.018 12.5092 230.613 12.5544C231.433 12.619 232.26 12.5544 233.087 12.5544V12.8258Z" fill="white"/>
<path d="M93.8449 37.5212H90.8597V12.5609C91.0342 12.5609 91.1828 12.5221 91.3314 12.5221C94.6526 12.5221 97.9802 12.4834 101.301 12.5609C103.671 12.5403 105.972 13.3546 107.801 14.8612C110.761 17.3617 111.207 24.5532 105.643 26.763C104.933 27.0473 104.196 27.2605 103.356 27.5384L111.756 37.5858C110.464 37.5858 109.346 37.5858 108.221 37.5858C107.982 37.5858 107.705 37.3015 107.524 37.0818C105.081 34.1527 102.65 31.217 100.229 28.275C100.095 28.0923 99.9165 27.9467 99.7108 27.8517C99.5051 27.7568 99.2787 27.7157 99.0528 27.7322C97.3534 27.7322 95.6605 27.7322 93.8837 27.7322L93.8449 37.5212ZM93.8449 24.7729C94.1227 24.7729 94.3295 24.7729 94.5363 24.7729C96.8236 24.7729 99.1174 24.7729 101.405 24.7341C101.944 24.7224 102.481 24.6553 103.007 24.5338C104.732 24.1397 106.141 23.332 106.658 21.497C107.504 18.4925 105.921 15.9402 102.71 15.6236C99.8281 15.3393 96.8947 15.4685 94 15.4233C93.9612 15.4233 93.916 15.4685 93.8449 15.5138V24.7729Z" fill="white"/>
<path d="M194.384 37.9541C191.705 37.9045 189.113 36.9988 186.986 35.3695C185.646 34.3328 184.537 33.0289 183.728 31.5406C182.92 30.0523 182.429 28.4121 182.288 26.7242C181.849 22.6471 182.812 18.9706 185.68 15.882C187.857 13.5954 190.847 12.2583 194.003 12.1603C198.849 11.8501 203.049 13.1747 205.963 17.3294C210.188 23.2932 208.586 32.1905 202.641 36.0092C200.149 37.4771 197.27 38.1552 194.384 37.9541V37.9541ZM185.247 25.0313C185.247 30.9758 189.279 35.0917 195.192 35.1111C201.104 35.1305 205.207 31.0856 205.239 25.2963C205.271 19.1773 201.298 15.055 195.334 15.0162C189.37 14.9774 185.28 19.0158 185.247 25.0055V25.0313Z" fill="white"/>
<path d="M115.581 37.6569V12.6449C115.633 12.6061 115.672 12.548 115.71 12.548C119.083 12.548 122.469 12.4252 125.822 12.6901C132.93 13.2394 137.181 18.2017 136.975 25.3221C136.884 28.2556 136.212 30.9823 134.313 33.2954C133.378 34.4539 132.215 35.4071 130.895 36.0953C129.575 36.7835 128.128 37.1919 126.643 37.295C122.979 37.5987 119.296 37.5535 115.581 37.6569ZM118.624 34.6653C121.752 34.5102 124.872 35.0206 127.916 34.0644C129.358 33.6817 130.659 32.8911 131.663 31.7875C132.667 30.6838 133.331 29.3138 133.576 27.8421C133.832 26.4773 133.914 25.0857 133.821 23.7003C133.79 21.8411 133.126 20.0481 131.938 18.6173C130.751 17.1866 129.111 16.2035 127.289 15.8304C124.446 15.1261 121.558 15.5396 118.644 15.4233L118.624 34.6653Z" fill="white"/>
<path d="M152.068 12.5221L162.93 37.56C161.877 37.56 160.933 37.56 159.99 37.56C159.796 37.56 159.551 37.2563 159.46 37.043C158.743 35.4212 158.039 33.8124 157.367 32.1518C157.316 31.9586 157.197 31.7904 157.032 31.6786C156.867 31.5668 156.666 31.5191 156.469 31.5444C152.432 31.5444 148.392 31.5444 144.347 31.5444C144.149 31.5166 143.947 31.5615 143.78 31.6708C143.612 31.7801 143.49 31.9464 143.436 32.1389C142.79 33.7348 142.073 35.3049 141.439 36.9009C141.385 37.1345 141.242 37.3379 141.041 37.4681C140.84 37.5983 140.596 37.6452 140.36 37.5987C139.566 37.547 138.771 37.5987 137.899 37.5987C137.976 37.3661 138.021 37.1787 138.099 36.9978C141.545 29.0374 145.006 21.0684 148.482 13.0907C148.53 12.9094 148.642 12.7518 148.798 12.6481C148.954 12.5444 149.143 12.5019 149.329 12.5286C150.227 12.548 151.131 12.5221 152.068 12.5221ZM150.382 15.7528C148.515 20.1789 146.725 24.4046 144.916 28.6756H155.9L150.382 15.7528Z" fill="white"/>
<path d="M62.1971 37.56L64.6977 31.79C67.3985 25.5913 70.0929 19.3949 72.7809 13.2006C72.8379 12.969 72.9816 12.7682 73.1824 12.6395C73.3832 12.5109 73.6257 12.4642 73.8599 12.5092C74.7064 12.5738 75.7466 12.2637 76.3475 12.6643C76.9485 13.0649 77.11 14.1116 77.446 14.887C80.5991 22.1453 83.7501 29.4036 86.899 36.6618C87.0088 36.9203 87.1057 37.1787 87.2608 37.5535C86.1947 37.5535 85.2319 37.5535 84.2692 37.5535C84.1076 37.5535 83.8944 37.2498 83.804 37.0495C83.0997 35.4212 82.3954 33.8188 81.7363 32.1518C81.6748 31.9478 81.5414 31.7731 81.3607 31.6602C81.18 31.5473 80.9645 31.5038 80.7542 31.538C76.7395 31.538 72.7249 31.538 68.7102 31.538C68.5135 31.5067 68.3121 31.5486 68.1443 31.6557C67.9764 31.7629 67.8536 31.9279 67.7991 32.1195C67.153 33.793 66.4164 35.4406 65.6734 37.0818C65.5994 37.2087 65.4975 37.317 65.3755 37.3987C65.2535 37.4804 65.1145 37.5334 64.9691 37.5535C64.0968 37.5923 63.2245 37.56 62.1971 37.56ZM74.7387 15.727L69.2594 28.6885H80.2437L74.7387 15.727Z" fill="white"/>
<path d="M172.641 37.5341H169.579V15.4491H160.83V12.5738H181.325V15.4297H172.641V37.5341Z" fill="white"/>
<path d="M21.846 12.5351C21.8915 12.5853 21.9325 12.6393 21.9687 12.6966C23.2222 14.7901 23.2222 14.7901 22.0139 16.89L19.5586 21.1804C19.5352 21.2498 19.5179 21.3212 19.5069 21.3936H30.1553C30.0915 21.2175 30.0181 21.0449 29.9356 20.8767C28.1092 17.5082 26.2763 14.144 24.437 10.784C24.3265 10.5806 24.2035 10.3842 24.0687 10.1961C23.9581 10.0075 23.7972 9.85341 23.604 9.75121C23.4107 9.649 23.1928 9.60268 22.9747 9.61744C22.7566 9.63221 22.5469 9.70747 22.3692 9.83479C22.1915 9.96211 22.0528 10.1364 21.9687 10.3382L15.2747 22.1044C13.0779 25.9812 10.8832 29.858 8.6906 33.7348C8.45601 34.1418 8.27159 34.5757 8.14139 35.0271C8.04657 35.2966 8.02016 35.5854 8.06453 35.8676C8.10891 36.1499 8.22268 36.4167 8.39563 36.6441C8.56857 36.8715 8.79529 37.0523 9.05541 37.1705C9.31553 37.2886 9.60092 37.3403 9.88596 37.3209C11.5853 37.3209 13.2846 37.3661 14.984 37.3661C22.6342 37.3661 30.2845 37.3661 37.9348 37.3661C38.3415 37.3795 38.747 37.3159 39.1301 37.1787C39.4613 37.0263 39.73 36.7646 39.8912 36.4375C40.0523 36.1105 40.0962 35.738 40.0153 35.3825C39.928 35.0023 39.7102 34.6648 39.3997 34.4286C39.0892 34.1925 38.7057 34.0727 38.316 34.0902C36.5133 34.0902 34.7041 34.0385 32.9078 34.0902C32.5723 34.1559 32.2244 34.0944 31.9317 33.9176C31.6391 33.7408 31.4227 33.4615 31.3248 33.1339C31.1372 32.6898 30.9214 32.2582 30.6786 31.8416C31.7254 31.8416 32.6171 31.8416 33.5475 31.8416C34.3229 31.8416 35.0918 31.8416 35.8671 31.79C36.2 31.7903 36.5202 31.6622 36.7609 31.4322C37.0017 31.2023 37.1444 30.8884 37.1594 30.5558C37.1648 30.3847 37.135 30.2142 37.072 30.055C37.009 29.8958 36.914 29.7512 36.7929 29.6301C36.6718 29.509 36.5272 29.414 36.368 29.351C36.2087 29.2879 36.0383 29.2582 35.8671 29.2636C33.961 29.2636 32.0549 29.1989 30.1488 29.2636C29.8499 29.313 29.5432 29.2526 29.2855 29.0934C29.0277 28.9343 28.8363 28.6871 28.7467 28.3977C28.515 27.911 28.2584 27.4365 27.9778 26.9762H29.9162C31.8546 26.9762 33.8318 26.9762 35.7831 26.9762C38.6778 27.0408 40.0606 29.0374 39.1237 31.8352L39.815 32.0807C40.6982 32.3703 41.448 32.9675 41.9278 33.7636C42.4075 34.5597 42.5853 35.5017 42.4287 36.4178C42.2721 37.334 41.7915 38.1635 41.0746 38.755C40.3576 39.3465 39.452 39.6608 38.5227 39.6405C28.8953 39.6405 19.2636 39.6405 9.6275 39.6405C8.92983 39.6194 8.24932 39.4192 7.65134 39.0592C7.05335 38.6992 6.55797 38.1915 6.21279 37.5848C5.86761 36.9782 5.68422 36.2929 5.68024 35.5949C5.67626 34.897 5.85182 34.2097 6.19005 33.5991C10.7647 25.3889 15.3781 17.2174 20.0303 9.0847C20.3434 8.54097 20.7959 8.09059 21.3411 7.77999C21.8863 7.4694 22.5045 7.30982 23.1319 7.31772C23.7593 7.32562 24.3732 7.50071 24.9104 7.82494C25.4476 8.14916 25.8886 8.61079 26.188 9.16224C28.4495 13.2932 30.6937 17.4306 32.9207 21.5745C33.6767 22.9766 33.2567 23.6745 31.6802 23.6745H17.7559C16.5153 23.6745 16.0824 23.0865 16.5735 21.9557C16.9418 21.1093 17.4264 20.3146 17.8657 19.5069C19.0589 17.3746 20.2586 15.2467 21.4647 13.1231C21.594 12.9228 21.7167 12.7418 21.846 12.5351Z" fill="white"/>
</svg>
