<svg width="32" height="23" viewBox="0 0 32 23" fill="none" xmlns="http://www.w3.org/2000/svg">
<path d="M16.5001 10.8612C17.3846 10.8612 18.2492 10.5989 18.9847 10.1075C19.7201 9.61607 20.2934 8.91761 20.6318 8.10042C20.9703 7.28323 21.0589 6.38401 20.8863 5.51648C20.7138 4.64896 20.2878 3.85208 19.6624 3.22663C19.0369 2.60118 18.2401 2.17524 17.3725 2.00268C16.505 1.83012 15.6058 1.91869 14.7886 2.25718C13.9714 2.59567 13.273 3.16889 12.7815 3.90434C12.2901 4.63979 12.0278 5.50445 12.0278 6.38897C12.0278 7.57508 12.499 8.71261 13.3377 9.55131C14.1764 10.39 15.3139 10.8612 16.5001 10.8612ZM16.5001 3.19453C17.1319 3.19453 17.7495 3.38188 18.2748 3.73289C18.8001 4.0839 19.2096 4.5828 19.4513 5.16651C19.6931 5.75022 19.7564 6.39252 19.6331 7.01218C19.5099 7.63184 19.2056 8.20103 18.7589 8.64778C18.3121 9.09454 17.7429 9.39878 17.1233 9.52204C16.5036 9.64529 15.8613 9.58203 15.2776 9.34025C14.6939 9.09847 14.195 8.68903 13.844 8.16371C13.493 7.63839 13.3056 7.02077 13.3056 6.38897C13.3056 5.54175 13.6422 4.72923 14.2412 4.13016C14.8403 3.53108 15.6528 3.19453 16.5001 3.19453V3.19453Z" fill="#404040"/>
<path d="M24.4669 15.5696C23.4423 14.4867 22.2076 13.6242 20.8383 13.0347C19.469 12.4452 17.9939 12.1411 16.5031 12.1411C15.0123 12.1411 13.5372 12.4452 12.1679 13.0347C10.7986 13.6242 9.56392 14.4867 8.53934 15.5696C8.3172 15.8069 8.19383 16.1199 8.19434 16.4449V19.8055C8.19434 20.1444 8.32896 20.4694 8.56859 20.709C8.80822 20.9486 9.13323 21.0832 9.47212 21.0832H23.5277C23.8666 21.0832 24.1916 20.9486 24.4312 20.709C24.6708 20.4694 24.8055 20.1444 24.8055 19.8055V16.4449C24.8077 16.1208 24.6867 15.8079 24.4669 15.5696V15.5696ZM23.5277 19.8055H9.47212V16.4385C10.3776 15.4851 11.4676 14.7259 12.6757 14.2071C13.8839 13.6883 15.185 13.4207 16.4999 13.4207C17.8148 13.4207 19.1159 13.6883 20.3241 14.2071C21.5322 14.7259 22.6222 15.4851 23.5277 16.4385V19.8055Z" fill="#404040"/>
</svg>
