<svg width="56" height="42" viewBox="0 0 56 42" fill="none" xmlns="http://www.w3.org/2000/svg">
<path d="M15.82 22.288H18.144C20.405 22.288 21.8365 23.611 21.854 25.438C21.882 27.3175 20.3595 28.6545 18.053 28.6545C15.96 28.6405 14.4235 27.517 14.315 26.0085H10.5C10.605 29.2075 13.2685 31.9165 18.0355 31.9165C22.3755 31.9165 26.033 29.6065 25.9875 25.6235C25.942 22.288 23.373 20.7935 21.4655 20.6115V20.3945C23.0055 20.1495 25.403 18.55 25.3435 15.582C25.298 12.411 22.5435 10.087 18.158 10.1045C13.573 10.122 11.0075 12.6735 10.899 15.9495H14.7595C14.8365 14.581 16.1 13.321 18.0355 13.321C19.8975 13.321 21.2835 14.476 21.2835 16.1665C21.2975 17.843 19.943 19.089 18.0355 19.089H15.8235V22.288H15.82ZM28.441 10.5035V31.5H36.1025C42.4375 31.5 45.5 27.6255 45.5 20.9475C45.5 14.3185 42.4865 10.5035 36.1025 10.5035H28.441ZM32.5955 13.888H35.5495C39.4415 13.888 41.223 16.289 41.223 21.028C41.223 25.7635 39.4555 28.098 35.5495 28.098H32.5955V13.888Z" fill="#CF0000"/>
<path d="M49 3.5C49.9283 3.5 50.8185 3.86875 51.4749 4.52513C52.1312 5.1815 52.5 6.07174 52.5 7V35C52.5 35.9283 52.1312 36.8185 51.4749 37.4749C50.8185 38.1312 49.9283 38.5 49 38.5H7C6.07174 38.5 5.1815 38.1312 4.52513 37.4749C3.86875 36.8185 3.5 35.9283 3.5 35V7C3.5 6.07174 3.86875 5.1815 4.52513 4.52513C5.1815 3.86875 6.07174 3.5 7 3.5H49ZM7 0C5.14348 0 3.36301 0.737498 2.05025 2.05025C0.737498 3.36301 0 5.14348 0 7L0 35C0 36.8565 0.737498 38.637 2.05025 39.9497C3.36301 41.2625 5.14348 42 7 42H49C50.8565 42 52.637 41.2625 53.9497 39.9497C55.2625 38.637 56 36.8565 56 35V7C56 5.14348 55.2625 3.36301 53.9497 2.05025C52.637 0.737498 50.8565 0 49 0H7Z" fill="#CF0000"/>
</svg>
