<svg width="39" height="39" viewBox="0 0 39 39" fill="none" xmlns="http://www.w3.org/2000/svg">
<path d="M19.5 34.5C15.5218 34.5 11.7064 32.9196 8.8934 30.1066C6.08035 27.2936 4.5 23.4782 4.5 19.5C4.5 15.5218 6.08035 11.7064 8.8934 8.8934C11.7064 6.08035 15.5218 4.5 19.5 4.5C23.4782 4.5 27.2936 6.08035 30.1066 8.8934C32.9196 11.7064 34.5 15.5218 34.5 19.5C34.5 23.4782 32.9196 27.2936 30.1066 30.1066C27.2936 32.9196 23.4782 34.5 19.5 34.5ZM19.5 0.75C17.0377 0.75 14.5995 1.23498 12.3247 2.17726C10.0498 3.11953 7.98285 4.50065 6.24175 6.24175C2.72544 9.75805 0.75 14.5272 0.75 19.5C0.75 24.4728 2.72544 29.2419 6.24175 32.7583C7.98285 34.4994 10.0498 35.8805 12.3247 36.8227C14.5995 37.765 17.0377 38.25 19.5 38.25C24.4728 38.25 29.2419 36.2746 32.7583 32.7583C36.2746 29.2419 38.25 24.4728 38.25 19.5C38.25 17.0377 37.765 14.5995 36.8227 12.3247C35.8805 10.0498 34.4994 7.98285 32.7583 6.24175C31.0172 4.50065 28.9502 3.11953 26.6753 2.17726C24.4005 1.23498 21.9623 0.75 19.5 0.75Z" fill="black"/>
</svg>
