<svg width="39" height="39" viewBox="0 0 39 39" fill="none" xmlns="http://www.w3.org/2000/svg">
<path d="M34.5 19.5C34.5 23.4782 32.9196 27.2935 30.1066 30.1066C27.2936 32.9196 23.4782 34.5 19.5 34.5C15.5218 34.5 11.7064 32.9196 8.8934 30.1066C6.08035 27.2935 4.5 23.4782 4.5 19.5C4.5 15.5217 6.08035 11.7064 8.8934 8.89336C11.7064 6.08031 15.5218 4.49996 19.5 4.49996C20.925 4.49996 22.3125 4.70621 23.625 5.08121L26.5688 2.13746C24.3268 1.21415 21.9246 0.742628 19.5 0.749962C17.0377 0.749962 14.5995 1.23495 12.3247 2.17722C10.0498 3.1195 7.98285 4.50061 6.24175 6.24171C2.72544 9.75802 0.75 14.5272 0.75 19.5C0.75 24.4728 2.72544 29.2419 6.24175 32.7582C7.98285 34.4993 10.0498 35.8804 12.3247 36.8227C14.5995 37.765 17.0377 38.25 19.5 38.25C24.4728 38.25 29.2419 36.2745 32.7583 32.7582C36.2746 29.2419 38.25 24.4728 38.25 19.5H34.5ZM11.8312 15.9L9.1875 18.5625L17.625 27L36.375 8.24996L33.7313 5.58746L17.625 21.6937L11.8312 15.9Z" fill="black"/>
</svg>
