<svg width="25" height="23" viewBox="0 0 25 23" fill="none" xmlns="http://www.w3.org/2000/svg">
<path d="M1.12743 14.4688C1.32874 14.4688 1.5218 14.5511 1.66414 14.6976C1.80649 14.8441 1.88646 15.0428 1.88646 15.25V19.1562C1.88646 19.5707 2.04639 19.9681 2.33108 20.2611C2.61577 20.5541 3.00189 20.7187 3.4045 20.7187H21.6211C22.0237 20.7187 22.4098 20.5541 22.6945 20.2611C22.9792 19.9681 23.1391 19.5707 23.1391 19.1562V15.25C23.1391 15.0428 23.2191 14.8441 23.3614 14.6976C23.5038 14.5511 23.6968 14.4688 23.8981 14.4688C24.0995 14.4688 24.2925 14.5511 24.4349 14.6976C24.5772 14.8441 24.6572 15.0428 24.6572 15.25V19.1562C24.6572 19.9851 24.3373 20.7799 23.7679 21.366C23.1985 21.952 22.4263 22.2812 21.6211 22.2812H3.4045C2.59928 22.2812 1.82704 21.952 1.25766 21.366C0.688282 20.7799 0.368408 19.9851 0.368408 19.1562V15.25C0.368408 15.0428 0.448377 14.8441 0.590721 14.6976C0.733066 14.5511 0.926126 14.4688 1.12743 14.4688Z" fill="black"/>
<path d="M11.9755 17.5219C12.046 17.5946 12.1297 17.6524 12.2219 17.6917C12.3142 17.7311 12.413 17.7514 12.5129 17.7514C12.6127 17.7514 12.7116 17.7311 12.8038 17.6917C12.896 17.6524 12.9797 17.5946 13.0502 17.5219L17.6044 12.8344C17.7469 12.6877 17.827 12.4887 17.827 12.2812C17.827 12.0738 17.7469 11.8748 17.6044 11.7281C17.4619 11.5814 17.2686 11.499 17.067 11.499C16.8654 11.499 16.6721 11.5814 16.5296 11.7281L13.2719 15.0828V1.34375C13.2719 1.13655 13.1919 0.937836 13.0496 0.791323C12.9072 0.64481 12.7142 0.5625 12.5129 0.5625C12.3116 0.5625 12.1185 0.64481 11.9761 0.791323C11.8338 0.937836 11.7538 1.13655 11.7538 1.34375V15.0828L8.4961 11.7281C8.35358 11.5814 8.16027 11.499 7.95871 11.499C7.75715 11.499 7.56385 11.5814 7.42132 11.7281C7.2788 11.8748 7.19873 12.0738 7.19873 12.2812C7.19873 12.4887 7.2788 12.6877 7.42132 12.8344L11.9755 17.5219Z" fill="black"/>
</svg>
