<svg width="12" height="22" viewBox="0 0 12 22" fill="none" xmlns="http://www.w3.org/2000/svg">
<path d="M10.8409 0.937371L8.18258 0.933105C5.196 0.933105 3.26595 2.9133 3.26595 5.97818V8.3043H0.593081C0.362114 8.3043 0.175079 8.49155 0.175079 8.72252V12.0928C0.175079 12.3238 0.362327 12.5108 0.593081 12.5108H3.26595V21.0151C3.26595 21.2461 3.45298 21.4331 3.68395 21.4331H7.17128C7.40224 21.4331 7.58928 21.2459 7.58928 21.0151V12.5108H10.7145C10.9454 12.5108 11.1325 12.3238 11.1325 12.0928L11.1338 8.72252C11.1338 8.61162 11.0896 8.50541 11.0113 8.42693C10.9331 8.34845 10.8264 8.3043 10.7155 8.3043H7.58928V6.33242C7.58928 5.38466 7.81512 4.90352 9.04972 4.90352L10.8405 4.90288C11.0713 4.90288 11.2583 4.71563 11.2583 4.48488V1.35538C11.2583 1.12483 11.0715 0.937797 10.8409 0.937371Z" fill="#E0E0E0"/>
</svg>
