<svg width="23" height="23" viewBox="0 0 23 23" fill="none" xmlns="http://www.w3.org/2000/svg">
<g clip-path="url(#clip0_139_92)">
<path d="M15.9 0.566895H7.7C3.92664 0.566895 0.866669 3.62686 0.866669 7.40023V15.6002C0.866669 19.3736 3.92664 22.4336 7.7 22.4336H15.9C19.6734 22.4336 22.7333 19.3736 22.7333 15.6002V7.40023C22.7333 3.62686 19.6734 0.566895 15.9 0.566895ZM20.6833 15.6002C20.6833 18.2379 18.5377 20.3836 15.9 20.3836H7.7C5.06234 20.3836 2.91667 18.2379 2.91667 15.6002V7.40023C2.91667 4.76256 5.06234 2.61689 7.7 2.61689H15.9C18.5377 2.61689 20.6833 4.76256 20.6833 7.40023V15.6002Z" fill="#E0E0E0"/>
<path d="M11.8 6.03369C8.78104 6.03369 6.33334 8.48139 6.33334 11.5004C6.33334 14.5193 8.78104 16.967 11.8 16.967C14.819 16.967 17.2667 14.5193 17.2667 11.5004C17.2667 8.48139 14.819 6.03369 11.8 6.03369ZM11.8 14.917C9.91674 14.917 8.38334 13.3836 8.38334 11.5004C8.38334 9.61572 9.91674 8.08369 11.8 8.08369C13.6833 8.08369 15.2167 9.61572 15.2167 11.5004C15.2167 13.3836 13.6833 14.917 11.8 14.917Z" fill="#E0E0E0"/>
<path d="M17.6766 6.35188C18.0789 6.35188 18.4051 6.02575 18.4051 5.62345C18.4051 5.22115 18.0789 4.89502 17.6766 4.89502C17.2743 4.89502 16.9482 5.22115 16.9482 5.62345C16.9482 6.02575 17.2743 6.35188 17.6766 6.35188Z" fill="#E0E0E0"/>
</g>
<defs>
<clipPath id="clip0_139_92">
<rect x="0.866669" y="0.566895" width="21.8667" height="21.8667" rx="5" fill="white"/>
</clipPath>
</defs>
</svg>
