<svg width="26" height="26" viewBox="0 0 26 26" fill="none" xmlns="http://www.w3.org/2000/svg">
<path d="M7.35597 5.89117C6.97912 5.89117 6.61771 6.02287 6.35124 6.25729C6.08476 6.49171 5.93506 6.80965 5.93506 7.14117C5.93506 7.4727 6.08476 7.79064 6.35124 8.02506C6.61771 8.25948 6.97912 8.39117 7.35597 8.39117H18.6185C18.9953 8.39117 19.3567 8.25948 19.6232 8.02506C19.8897 7.79064 20.0394 7.4727 20.0394 7.14117C20.0394 6.80965 19.8897 6.49171 19.6232 6.25729C19.3567 6.02287 18.9953 5.89117 18.6185 5.89117H7.35597Z" fill="white"/>
<path d="M5.93933 12.8291C5.93933 12.1411 6.57258 11.5791 7.356 11.5791H18.6185C18.9953 11.5791 19.3568 11.7108 19.6232 11.9452C19.8897 12.1796 20.0394 12.4976 20.0394 12.8291C20.0394 13.1606 19.8897 13.4785 19.6232 13.713C19.3568 13.9474 18.9953 14.0791 18.6185 14.0791H7.356C6.57258 14.0791 5.93933 13.5183 5.93933 12.8291V12.8291Z" fill="white"/>
<path d="M7.36877 17.267C6.99173 17.267 6.63013 17.3987 6.36353 17.6331C6.09692 17.8675 5.94714 18.1855 5.94714 18.517C5.94714 18.8485 6.09692 19.1665 6.36353 19.4009C6.63013 19.6353 6.99173 19.767 7.36877 19.767H18.6313C19.0083 19.767 19.3699 19.6353 19.6365 19.4009C19.9031 19.1665 20.0529 18.8485 20.0529 18.517C20.0529 18.1855 19.9031 17.8675 19.6365 17.6331C19.3699 17.3987 19.0083 17.267 18.6313 17.267H7.36877V17.267Z" fill="white"/>
<path fill-rule="evenodd" clip-rule="evenodd" d="M2.2019 2.2019C1.59241 2.8114 1.25 3.63805 1.25 4.5V21.5C1.25 22.362 1.59241 23.1886 2.2019 23.7981C2.8114 24.4076 3.63805 24.75 4.5 24.75H21.5C22.362 24.75 23.1886 24.4076 23.7981 23.7981C24.4076 23.1886 24.75 22.362 24.75 21.5V4.5C24.75 3.63805 24.4076 2.8114 23.7981 2.2019C23.1886 1.59241 22.362 1.25 21.5 1.25H4.5C3.63805 1.25 2.8114 1.59241 2.2019 2.2019ZM0.25 4.5C0.25 3.37283 0.697767 2.29183 1.4948 1.4948C2.29183 0.697767 3.37283 0.25 4.5 0.25H21.5C22.6272 0.25 23.7082 0.697767 24.5052 1.4948C25.3022 2.29183 25.75 3.37283 25.75 4.5V21.5C25.75 22.6272 25.3022 23.7082 24.5052 24.5052C23.7082 25.3022 22.6272 25.75 21.5 25.75H4.5C3.37283 25.75 2.29183 25.3022 1.4948 24.5052C0.697767 23.7082 0.25 22.6272 0.25 21.5V4.5Z" fill="white"/>
</svg>
