<svg width="23" height="24" viewBox="0 0 23 24" fill="none" xmlns="http://www.w3.org/2000/svg">
<path d="M6.20392 13.0239C6.03952 13.0239 5.88185 13.0863 5.7656 13.1973C5.64935 13.3083 5.58405 13.4588 5.58405 13.6158V17.1671C5.58405 17.3241 5.64935 17.4747 5.7656 17.5857C5.88185 17.6967 6.03952 17.759 6.20392 17.759C6.36833 17.759 6.52599 17.6967 6.64224 17.5857C6.75849 17.4747 6.8238 17.3241 6.8238 17.1671V16.5752H7.43996C7.93317 16.5752 8.40617 16.3882 8.75492 16.0552C9.10367 15.7222 9.2996 15.2705 9.2996 14.7996C9.2996 14.3286 9.10367 13.877 8.75492 13.544C8.40617 13.211 7.93317 13.0239 7.43996 13.0239H6.20392ZM7.43996 15.3915H6.8238V14.2077H7.43996C7.60436 14.2077 7.76203 14.2701 7.87828 14.3811C7.99453 14.4921 8.05984 14.6426 8.05984 14.7996C8.05984 14.9566 7.99453 15.1071 7.87828 15.2181C7.76203 15.3291 7.60436 15.3915 7.43996 15.3915Z" fill="black"/>
<path d="M15.4957 13.6146C15.4961 13.4579 15.5615 13.3076 15.6777 13.1969C15.7939 13.0861 15.9514 13.0239 16.1156 13.0239H17.9814C18.1458 13.0239 18.3034 13.0863 18.4197 13.1973C18.5359 13.3083 18.6012 13.4588 18.6012 13.6158C18.6012 13.7728 18.5359 13.9233 18.4197 14.0343C18.3034 14.1453 18.1458 14.2077 17.9814 14.2077H16.7342L16.733 15.3938H17.9814C18.1458 15.3938 18.3034 15.4562 18.4197 15.5672C18.5359 15.6782 18.6012 15.8287 18.6012 15.9857C18.6012 16.1427 18.5359 16.2932 18.4197 16.4042C18.3034 16.5152 18.1458 16.5776 17.9814 16.5776H16.733L16.7354 17.1659C16.7356 17.2437 16.7197 17.3207 16.6887 17.3925C16.6577 17.4644 16.6122 17.5297 16.5548 17.5848C16.4388 17.696 16.2812 17.7587 16.1168 17.759C15.9524 17.7593 15.7946 17.6973 15.6782 17.5865C15.5617 17.4757 15.4961 17.3253 15.4957 17.1683L15.492 15.9869V15.9845L15.4957 13.6146Z" fill="black"/>
<path d="M11.159 13.0239C10.9947 13.0239 10.837 13.0863 10.7207 13.1973C10.6045 13.3083 10.5392 13.4588 10.5392 13.6158V17.1671C10.5392 17.3241 10.6045 17.4747 10.7207 17.5857C10.837 17.6967 10.9947 17.759 11.159 17.759H11.7764C12.434 17.759 13.0647 17.5096 13.5297 17.0656C13.9947 16.6216 14.2559 16.0194 14.2559 15.3915C14.2559 14.7636 13.9947 14.1614 13.5297 13.7174C13.0647 13.2734 12.434 13.0239 11.7764 13.0239H11.159ZM11.7789 16.5752V14.2077C12.1077 14.2077 12.423 14.3324 12.6555 14.5544C12.888 14.7764 13.0186 15.0775 13.0186 15.3915C13.0186 15.7054 12.888 16.0065 12.6555 16.2285C12.423 16.4505 12.1077 16.5752 11.7789 16.5752Z" fill="black"/>
<path d="M21.6968 21.3079V19.93C22.4295 19.5973 22.9366 18.8835 22.9366 18.0572V12.7255C22.9366 11.8993 22.4295 11.1866 21.6968 10.8528V9.26655C21.6967 8.63869 21.4354 8.0366 20.9704 7.5927L13.744 0.693689C13.7248 0.676675 13.7045 0.660859 13.6832 0.646338C13.6679 0.635033 13.653 0.623187 13.6386 0.610825C13.5533 0.533964 13.4626 0.462771 13.3671 0.397747C13.3354 0.378193 13.3022 0.360789 13.2679 0.345661L13.2084 0.31725L13.1464 0.282921C13.0795 0.246224 13.0113 0.208343 12.9406 0.179933C12.6938 0.0857798 12.4325 0.0306057 12.167 0.0165727C12.1423 0.0153889 12.1175 0.0118377 12.0939 0.00828635C12.0603 0.00332415 12.0263 0.000555656 11.9922 0H4.34064C3.68305 0 3.05239 0.249436 2.5874 0.693436C2.12242 1.13744 1.86119 1.73963 1.86119 2.36754V10.8528C1.12851 11.1854 0.62146 11.8993 0.62146 12.7255V18.0572C0.62146 18.8835 1.12851 19.5961 1.86119 19.93V21.3079C1.86119 21.9358 2.12242 22.538 2.5874 22.982C3.05239 23.426 3.68305 23.6754 4.34064 23.6754H19.2174C19.875 23.6754 20.5056 23.426 20.9706 22.982C21.4356 22.538 21.6968 21.9358 21.6968 21.3079ZM19.2174 21.8997H4.34064C4.17625 21.8997 4.01858 21.8374 3.90233 21.7264C3.78609 21.6154 3.72078 21.4648 3.72078 21.3079V20.1288H19.8372V21.3079C19.8372 21.4648 19.7719 21.6154 19.6557 21.7264C19.5394 21.8374 19.3818 21.8997 19.2174 21.8997ZM19.8372 9.47016V10.6539H3.72078V2.36754C3.72078 2.21056 3.78609 2.06001 3.90233 1.94901C4.01858 1.83801 4.17625 1.77565 4.34064 1.77565H11.779V7.10262C11.779 7.73053 12.0402 8.33272 12.5052 8.77672C12.9702 9.22072 13.6009 9.47016 14.2585 9.47016H19.8372ZM18.4463 7.6945H14.2585C14.0941 7.6945 13.9364 7.63215 13.8202 7.52115C13.7039 7.41015 13.6386 7.2596 13.6386 7.10262V3.10266L18.4463 7.6945ZM2.79098 12.4296H20.767C20.8492 12.4296 20.9281 12.4608 20.9862 12.5163C21.0443 12.5718 21.077 12.647 21.077 12.7255V18.0572C21.077 18.1357 21.0443 18.211 20.9862 18.2665C20.9281 18.322 20.8492 18.3532 20.767 18.3532H2.79098C2.70878 18.3532 2.62995 18.322 2.57183 18.2665C2.51371 18.211 2.48105 18.1357 2.48105 18.0572V12.7255C2.48105 12.647 2.51371 12.5718 2.57183 12.5163C2.62995 12.4608 2.70878 12.4296 2.79098 12.4296Z" fill="black"/>
</svg>
