<svg width="28" height="16" viewBox="0 0 28 16" fill="none" xmlns="http://www.w3.org/2000/svg">
<path d="M27.7884 14.0588C27.7553 13.9877 27.7244 13.9288 27.6958 13.8816C27.2215 13.031 26.3153 11.987 24.9776 10.7493L24.9493 10.7209L24.9351 10.707L24.9208 10.6928H24.9065C24.2994 10.1164 23.9149 9.72888 23.7539 9.53048C23.4593 9.15252 23.3933 8.76995 23.5543 8.38232C23.6681 8.08945 24.0953 7.47094 24.8352 6.52596C25.2243 6.02515 25.5325 5.62376 25.7601 5.32136C27.4016 3.14815 28.1132 1.75944 27.8949 1.15469L27.8101 1.01336C27.7531 0.928281 27.6061 0.850446 27.3692 0.779462C27.1317 0.708626 26.8282 0.696912 26.4581 0.744119L22.3596 0.772314C22.2932 0.748884 22.1984 0.751068 22.0749 0.779462C21.9515 0.807855 21.8898 0.822102 21.8898 0.822102L21.8184 0.857594L21.7618 0.900234C21.7144 0.928429 21.6622 0.978019 21.6052 1.0489C21.5485 1.11954 21.5011 1.20244 21.4632 1.2969C21.017 2.44014 20.5097 3.50307 19.9403 4.48563C19.5892 5.07152 19.2668 5.57928 18.9724 6.00921C18.6784 6.43899 18.4317 6.75564 18.2326 6.95861C18.0332 7.16179 17.8533 7.32455 17.6917 7.44751C17.5303 7.57052 17.4072 7.62249 17.3219 7.60348C17.2364 7.58446 17.1559 7.5656 17.0797 7.54674C16.9469 7.46166 16.8402 7.34595 16.7597 7.19951C16.6788 7.05308 16.6244 6.86877 16.5959 6.64673C16.5676 6.42454 16.5509 6.23343 16.5461 6.07275C16.5416 5.91227 16.5437 5.68527 16.5533 5.39239C16.5632 5.09937 16.5676 4.90111 16.5676 4.79717C16.5676 4.43808 16.5746 4.04836 16.5887 3.62791C16.6031 3.20747 16.6147 2.87434 16.6244 2.62892C16.6341 2.38326 16.6386 2.12335 16.6386 1.84934C16.6386 1.57533 16.6218 1.36044 16.5887 1.20447C16.556 1.04871 16.5058 0.897504 16.4397 0.750919C16.3732 0.604483 16.2758 0.491206 16.148 0.410791C16.0199 0.330474 15.8607 0.266737 15.6712 0.219381C15.1683 0.106055 14.528 0.0447504 13.7498 0.0352197C11.9852 0.0163567 10.8514 0.129832 10.3486 0.375497C10.1493 0.479293 9.96903 0.621112 9.80783 0.800508C9.63701 1.00845 9.61319 1.12192 9.7365 1.14059C10.3058 1.22552 10.7089 1.42869 10.9461 1.74991L11.0316 1.92012C11.0981 2.04293 11.1645 2.26035 11.2309 2.57209C11.2973 2.88382 11.3401 3.22867 11.3589 3.60642C11.4063 4.29626 11.4063 4.88677 11.3589 5.378C11.3114 5.86943 11.2666 6.252 11.2237 6.52601C11.1809 6.80002 11.1169 7.02205 11.0316 7.19207C10.9461 7.36213 10.8892 7.46608 10.8607 7.5038C10.8323 7.54153 10.8085 7.5653 10.7897 7.57464C10.6664 7.62169 10.5381 7.64567 10.4054 7.64567C10.2724 7.64567 10.1112 7.57945 9.92153 7.44711C9.73187 7.31477 9.53503 7.133 9.33101 6.90148C9.12699 6.66991 8.8969 6.34631 8.64065 5.93063C8.38459 5.51495 8.11891 5.02367 7.84376 4.45679L7.61612 4.04568C7.47381 3.7812 7.27941 3.3961 7.03272 2.89072C6.78589 2.38514 6.56771 1.8961 6.37805 1.42368C6.30224 1.22527 6.18834 1.07422 6.03656 0.970276L5.96533 0.927635C5.91798 0.889909 5.84196 0.84985 5.73768 0.80716C5.63326 0.76452 5.52429 0.733942 5.41035 0.715129L1.51097 0.743324C1.1125 0.743324 0.842141 0.833221 0.699782 1.01277L0.642808 1.0977C0.614346 1.14501 0.599991 1.22056 0.599991 1.32455C0.599991 1.4285 0.628453 1.55607 0.685426 1.70712C1.25466 3.03944 1.8737 4.32435 2.54253 5.56206C3.21136 6.79977 3.79256 7.79677 4.28578 8.55218C4.7791 9.30814 5.28194 10.0216 5.79431 10.6922C6.30667 11.3631 6.64582 11.793 6.81176 11.9819C6.97789 12.1711 7.10839 12.3126 7.20325 12.4071L7.55909 12.7472C7.78679 12.974 8.12115 13.2456 8.56234 13.562C9.00362 13.8787 9.49216 14.1904 10.0282 14.4977C10.5643 14.8046 11.1881 15.0549 11.8997 15.2486C12.6113 15.4424 13.3038 15.5202 13.9775 15.4827H15.6141C15.946 15.4541 16.1975 15.3502 16.3684 15.1708L16.425 15.0998C16.4631 15.0434 16.4988 14.9558 16.5317 14.8379C16.565 14.7198 16.5815 14.5897 16.5815 14.4481C16.5718 14.0419 16.6028 13.6759 16.6738 13.3499C16.7448 13.0241 16.8256 12.7784 16.916 12.613C17.0064 12.4477 17.1084 12.3082 17.2219 12.1951C17.3356 12.0818 17.4167 12.0131 17.4642 11.9895C17.5115 11.9657 17.5492 11.9496 17.5777 11.9399C17.8054 11.8644 18.0733 11.9375 18.382 12.1598C18.6904 12.3818 18.9796 12.656 19.2502 12.9818C19.5206 13.3079 19.8455 13.6738 20.2249 14.08C20.6046 14.4864 20.9366 14.7884 21.2211 14.9871L21.5056 15.1572C21.6956 15.2707 21.9423 15.3746 22.246 15.4691C22.5491 15.5635 22.8147 15.5871 23.0427 15.5399L26.6858 15.4833C27.0461 15.4833 27.3265 15.4239 27.5254 15.306C27.7247 15.1879 27.843 15.0578 27.8812 14.9163C27.9193 14.7746 27.9214 14.6139 27.8885 14.4342C27.8547 14.2549 27.8215 14.1296 27.7884 14.0588Z" fill="white"/>
</svg>
